# xmcd CD database file
#
# Track frame offsets:
#	150
#	29478
#	62568
#	73589
#	92086
#	115820
#	140711
#	161379
#	187761
#	191131
#
# Disc length: 3108 seconds
#
# Revision: 0
# Processed by: cddbd v1.5.2PL0 Copyright (c) Steve Scherf et al.
# Submitted via: CDex 1.81
#
DISCID=880c220a
DTITLE=Vince Willis - From My Heart To My Backbone
DYEAR=1999
DGENRE=Jazz
TTITLE0=Margaritaville
TTITLE1=Everything Must Change
TTITLE2=Drowning in Your Treasure
TTITLE3=Thank You Father
TTITLE4=Here's To Life (Swing)
TTITLE5=I Miss You When I Hear The Rain
TTITLE6=Ashley
TTITLE7=Day In The Life
TTITLE8=ABC
TTITLE9=Here's To Life (Ballad)
EXTD=YEAR: 1999
EXTT0=
EXTT1=
EXTT2=
EXTT3=
EXTT4=
EXTT5=
EXTT6=
EXTT7=
EXTT8=
EXTT9=
PLAYORDER=
